<svg xmlns="http://www.w3.org/2000/svg" width="375" height="375" viewBox="0 0 375 375">
  <defs>
    <!-- Mask Definition: White base (opaque) with Black content (transparent cut-out) -->
    <mask id="cutout-mask">
      <rect x="-500" y="-500" width="3000" height="3000" fill="white" />
      <path fill="black" d="
      M880.4499 105.07134C893.76626 105.07134 906.53726 110.361248 915.9533 119.77733 925.3694 129.1934 930.6593 141.96436 930.6593 155.2807V337.50776C930.6593 350.82414 925.3694 363.59507 915.9533 373.01115 906.53726 382.42723 893.76626 387.71714 880.4499 387.71714 867.13357 387.71714 854.3626 382.42723 844.94656 373.01115 835.53048 363.59507 830.24057 350.82414 830.24057 337.50776V155.2807C830.24057 141.96436 835.53048 129.1934 844.94656 119.77733 854.3626 110.361248 867.13357 105.07134 880.4499 105.07134Z
      M1077.7824 105.07134C1091.0988 105.07134 1103.8696 110.361248 1113.2858 119.77733 1122.7018 129.1934 1127.9917 141.96436 1127.9917 155.2807V337.50776C1127.9917 350.82414 1122.7018 363.59507 1113.2858 373.01115 1103.8696 382.42723 1091.0988 387.71714 1077.7824 387.71714 1064.4661 387.71714 1051.6951 382.42723 1042.2789 373.01115 1032.8629 363.59507 1027.573 350.82414 1027.573 337.50776V155.2807C1027.573 141.96436 1032.8629 129.1934 1042.2789 119.77733 1051.6951 110.361248 1064.4661 105.07134 1077.7824 105.07134Z
      M683.1174 105.07134C696.4337 105.07134 709.2047 110.361248 718.6208 119.77733 728.03689 129.1934 733.3268 141.96436 733.3268 155.2807V337.50776C733.3268 350.82414 728.03689 363.59507 718.6208 373.01115 709.2047 382.42723 696.4337 387.71714 683.1174 387.71714 669.801 387.71714 657.0301 382.42723 647.614 373.01115 638.19796 363.59507 632.908 350.82414 632.908 337.50776V155.2807C632.908 141.96436 638.19796 129.1934 647.614 119.77733 657.0301 110.361248 669.801 105.07134 683.1174 105.07134Z
      M485.7849 105.07134C499.10127 105.07134 511.8722 110.361248 521.28829 119.77733 530.70437 129.1934 535.99429 141.96436 535.99429 155.2807V337.50776C535.99429 350.82414 530.70437 363.59507 521.28829 373.01115 511.8722 382.42723 499.10127 387.71714 485.7849 387.71714 472.46855 387.71714 459.6976 382.42723 450.28153 373.01115 440.86543 363.59507 435.57554 350.82414 435.57554 337.50776V155.2807C435.57554 141.96436 440.86543 129.1934 450.28153 119.77733 459.6976 110.361248 472.46855 105.07134 485.7849 105.07134Z
      M1230.3234 774.6704V1109.5794C1230.3234 1141.0739 1217.8123 1171.2783 1195.5422 1193.5484 1173.2722 1215.8182 1143.0678 1228.3294 1111.5734 1228.3294H454.80384C423.3094 1228.3294 393.10487 1215.8182 370.8349 1193.5484 348.56498 1171.2783 336.05384 1141.0739 336.05384 1109.5794V774.6704C336.05384 743.17599 348.56498 712.97146 370.8349 690.7015 393.10487 668.4315 423.3094 655.9204 454.80384 655.9204H1111.5734C1143.0678 655.9204 1173.2722 668.4315 1195.5422 690.7015 1217.8123 712.97146 1230.3234 743.17599 1230.3234 774.6704Z
      M1230.3235 556.564V1105.8727C1230.3235 1116.6471 1226.0433 1126.9802 1218.4246 1134.5989 1210.8059 1142.2175 1200.4728 1146.4977 1189.6984 1146.4977H376.67884C365.90443 1146.4977 355.5713 1142.2175 347.9526 1134.5989 340.33396 1126.9802 336.05384 1116.6471 336.05384 1105.8727V556.564C336.05384 545.7896 340.33396 535.4565 347.9526 527.8378 355.5713 520.2192 365.90443 515.939 376.67884 515.939H1189.6984C1200.4728 515.939 1210.8059 520.2192 1218.4246 527.8378 1226.0433 535.4565 1230.3235 545.7896 1230.3235 556.564Z
      M1524.4524 1352.875 1137.7918 1580.5137C1104.097 1600.3507 1062.3574 1600.6166 1028.4127 1581.2103 994.4681 1561.8041 973.5211 1525.7002 973.5211 1486.5997L973.5212 1025.7282C973.5212 986.62777 994.46817 950.5238 1028.4129 931.11758 1062.3576 911.71127 1104.0972 911.9772 1137.7919 931.8142L1524.4524 1159.4529C1558.7107 1179.6217 1579.7422 1216.4096 1579.7422 1256.164 1579.7422 1295.9183 1558.7107 1332.7062 1524.4524 1352.875Z
      M1381.1641 1136.1566 994.5035 1363.7953C960.8087 1383.6323 919.0691 1383.8982 885.12448 1364.492 851.17977 1345.0857 830.2328 1308.9818 830.2328 1269.8814L830.23287 809.00979C830.23287 769.90939 851.1798 733.8054 885.1245 714.3992 919.0692 694.99288 960.80886 695.2588 994.50357 715.0958L1381.1641 942.7345C1415.4224 962.9033 1436.4539 999.69119 1436.4539 1039.4456 1436.4539 1079.2 1415.4224 1115.9878 1381.1641 1136.1566Z" />
    </mask>
  </defs>
  <g transform="scale(0.24)">
    <!-- Red Background with Text Mask Applied -->
    <path fill="#e11d48" mask="url(#cutout-mask)" d="M418.87019 232.82413H1143.6298C1247.1831 232.82413 1331.1298 316.77073 1331.1298 420.3241V1148.9608C1331.1298 1252.5143 1247.1831 1336.4608 1143.6298 1336.4608H418.87019C315.3168 1336.4608 231.3702 1252.5143 231.3702 1148.9608V420.3241C231.3702 316.77073 315.3168 232.82413 418.87019 232.82413Z"/>
    
    <!-- Red Details Overlay (Grid lines remain red) -->
    <path fill="#e11d48" d="
      M485.78486 105.07134C503.87889 105.07134 518.54696 119.73943 518.54696 137.83344V327.81483C518.54696 345.90885 503.87889 360.57695 485.78486 360.57695 467.69087 360.57695 453.02278 345.90885 453.02278 327.81483V137.83344C453.02278 119.73943 467.69087 105.07134 485.78486 105.07134Z
      M683.1174 105.07134C701.21139 105.07134 715.87948 119.73943 715.87948 137.83344V327.81483C715.87948 345.90885 701.21139 360.57695 683.1174 360.57695 665.0234 360.57695 650.3553 345.90885 650.3553 327.81483V137.83344C650.3553 119.73943 665.0234 105.07134 683.1174 105.07134Z
      M880.4499 105.07134C898.5439 105.07134 913.212 119.73943 913.212 137.83344V327.81483C913.212 345.90885 898.5439 360.57695 880.4499 360.57695 862.3559 360.57695 847.6878 345.90885 847.6878 327.81483V137.83344C847.6878 119.73943 862.3559 105.07134 880.4499 105.07134Z
      M1077.7824 105.07134C1095.8764 105.07134 1110.5444 119.73943 1110.5444 137.83344V327.81483C1110.5444 345.90885 1095.8764 360.57695 1077.7824 360.57695 1059.6884 360.57695 1045.0203 345.90885 1045.0203 327.81483V137.83344C1045.0203 119.73943 1059.6884 105.07134 1077.7824 105.07134Z
      M519.1487 603.71456C490.57337 603.71456 467.4085 626.8794 467.4085 655.4547 467.4085 684.02999 490.57337 707.1948 519.1487 707.1948 547.72396 707.1948 570.8888 684.02999 570.8888 655.4547 570.8888 626.8794 547.72396 603.71456 519.1487 603.71456Z
      M781.25009 603.71456C752.67477 603.71456 729.5099 626.8794 729.5099 655.4547 729.5099 684.02999 752.67477 707.1948 781.25009 707.1948 809.8253 707.1948 832.9902 684.02999 832.9902 655.4547 832.9902 626.8794 809.8253 603.71456 781.25009 603.71456Z
      M1058.8045 603.71456C1030.2291 603.71456 1007.0643 626.8794 1007.0643 655.4547 1007.0643 684.02999 1030.2291 707.1948 1058.8045 707.1948 1087.3798 707.1948 1110.5446 684.02999 1110.5446 655.4547 1110.5446 626.8794 1087.3798 603.71456 1058.8045 603.71456Z
      M519.1487 820.43289C490.57337 820.43289 467.4085 843.5977 467.4085 872.17306 467.4085 900.7483 490.57337 923.91317 519.1487 923.91317 547.72396 923.91317 570.8888 900.7483 570.8888 872.17306 570.8888 843.5977 547.72396 820.43289 519.1487 820.43289Z
      M781.25009 820.43289C752.67477 820.43289 729.5099 843.5977 729.5099 872.17306 729.5099 900.7483 752.67477 923.91317 781.25009 923.91317 809.8253 923.91317 832.9902 900.7483 832.9902 872.17306 832.9902 843.5977 809.8253 820.43289 781.25009 820.43289Z
      M519.1487 1037.1513C490.57337 1037.1513 467.4085 1060.316 467.4085 1088.8914 467.4085 1117.4667 490.57337 1140.6316 519.1487 1140.6316 547.72396 1140.6316 570.8888 1117.4667 570.8888 1088.8914 570.8888 1060.316 547.72396 1037.1513 519.1487 1037.1513Z
      M781.25009 1037.1513C752.67477 1037.1513 729.5099 1060.316 729.5099 1088.8914 729.5099 1117.4667 752.67477 1140.6316 781.25009 1140.6316 809.8253 1140.6316 832.9902 1117.4667 832.9902 1088.8914 832.9902 1060.316 809.8253 1037.1513 781.25009 1037.1513Z
      M1303.0485 1159.1151 1056.0083 1314.2593C1035.2442 1327.2994 1009.0352 1328.0302 987.57687 1316.1671 966.1184 1304.3042 952.79849 1281.7206 952.79849 1257.2013L952.7985 931.39486C952.7985 906.8756 966.11849 884.292 987.57687 872.429 1009.0353 860.56607 1035.2443 861.29678 1056.0083 874.3369L1303.0485 1029.4811C1325.3469 1043.4848 1338.8816 1067.967 1338.8816 1094.2981 1338.8816 1120.6292 1325.3469 1145.1115 1303.0485 1159.1151Z" />
  </g>
</svg>